<?xml version="1.0" encoding="UTF-8" standalone="no"?>
<!DOCTYPE svg PUBLIC "-//W3C//DTD SVG 1.1//EN"
 "http://www.w3.org/Graphics/SVG/1.1/DTD/svg11.dtd">
<!-- Generated by graphviz version 2.43.0 (0)
 -->
<!-- Title: controllers_diagram Pages: 1 -->
<svg width="278pt" height="274pt"
 viewBox="0.00 0.00 278.23 274.00" xmlns="http://www.w3.org/2000/svg" xmlns:xlink="http://www.w3.org/1999/xlink">
<g id="graph0" class="graph" transform="scale(1 1) rotate(0) translate(4 270)">
<title>controllers_diagram</title>
<polygon fill="transparent" stroke="transparent" points="-4,4 -4,-270 274.23,-270 274.23,4 -4,4"/>
<!-- _diagram_info -->
<g id="node1" class="node">
<title>_diagram_info</title>
<text text-anchor="start" x="8" y="-58.6" font-family="Times,serif" font-size="13.00">Controllers diagram</text>
<text text-anchor="start" x="8" y="-45.6" font-family="Times,serif" font-size="13.00">Date: Oct 17 2019 &#45; 15:02</text>
<text text-anchor="start" x="8" y="-32.6" font-family="Times,serif" font-size="13.00">Migration version: 20191017110041</text>
<text text-anchor="start" x="8" y="-19.6" font-family="Times,serif" font-size="13.00">Generated by RailRoady 1.5.3</text>
<text text-anchor="start" x="8" y="-6.6" font-family="Times,serif" font-size="13.00">http://railroady.prestonlee.com</text>
</g>
<!-- ApplicationController -->
<g id="node2" class="node">
<title>ApplicationController</title>
<path fill="none" stroke="black" d="M12,-150.5C12,-150.5 127.64,-150.5 127.64,-150.5 133.64,-150.5 139.64,-156.5 139.64,-162.5 139.64,-162.5 139.64,-232.5 139.64,-232.5 139.64,-238.5 133.64,-244.5 127.64,-244.5 127.64,-244.5 12,-244.5 12,-244.5 6,-244.5 0,-238.5 0,-232.5 0,-232.5 0,-162.5 0,-162.5 0,-156.5 6,-150.5 12,-150.5"/>
<text text-anchor="middle" x="69.82" y="-229.3" font-family="Times,serif" font-size="14.00">ApplicationController</text>
<polyline fill="none" stroke="black" points="0,-222.5 139.64,-222.5 "/>
<polyline fill="none" stroke="black" points="0,-198.5 139.64,-198.5 "/>
<polyline fill="none" stroke="black" points="0,-174.5 139.64,-174.5 "/>
</g>
<!-- TasksController -->
<g id="node3" class="node">
<title>TasksController</title>
<path fill="none" stroke="black" d="M177,-105.5C177,-105.5 258.23,-105.5 258.23,-105.5 264.23,-105.5 270.23,-111.5 270.23,-117.5 270.23,-117.5 270.23,-253.5 270.23,-253.5 270.23,-259.5 264.23,-265.5 258.23,-265.5 258.23,-265.5 177,-265.5 177,-265.5 171,-265.5 165,-259.5 165,-253.5 165,-253.5 165,-117.5 165,-117.5 165,-111.5 171,-105.5 177,-105.5"/>
<text text-anchor="middle" x="217.61" y="-250.3" font-family="Times,serif" font-size="14.00">TasksController</text>
<polyline fill="none" stroke="black" points="165,-243.5 270.23,-243.5 "/>
<text text-anchor="start" x="173" y="-228.3" font-family="Times,serif" font-size="14.00">create</text>
<text text-anchor="start" x="173" y="-214.3" font-family="Times,serif" font-size="14.00">destroy</text>
<text text-anchor="start" x="173" y="-200.3" font-family="Times,serif" font-size="14.00">index</text>
<text text-anchor="start" x="173" y="-186.3" font-family="Times,serif" font-size="14.00">show</text>
<text text-anchor="start" x="173" y="-172.3" font-family="Times,serif" font-size="14.00">update</text>
<polyline fill="none" stroke="black" points="165,-165.5 270.23,-165.5 "/>
<polyline fill="none" stroke="black" points="165,-141.5 270.23,-141.5 "/>
<text text-anchor="start" x="173" y="-126.3" font-family="Times,serif" font-size="14.00">set_task</text>
<text text-anchor="start" x="173" y="-112.3" font-family="Times,serif" font-size="14.00">task_params</text>
</g>
</g>
</svg>
