<?xml version="1.0" encoding="UTF-8" standalone="no"?>
<!DOCTYPE svg PUBLIC "-//W3C//DTD SVG 1.1//EN"
 "http://www.w3.org/Graphics/SVG/1.1/DTD/svg11.dtd">
<!-- Generated by graphviz version 2.43.0 (0)
 -->
<!-- Title: models_diagram Pages: 1 -->
<svg width="555pt" height="109pt"
 viewBox="0.00 0.00 555.12 109.00" xmlns="http://www.w3.org/2000/svg" xmlns:xlink="http://www.w3.org/1999/xlink">
<g id="graph0" class="graph" transform="scale(1 1) rotate(0) translate(4 105)">
<title>models_diagram</title>
<polygon fill="transparent" stroke="transparent" points="-4,4 -4,-105 551.12,-105 551.12,4 -4,4"/>
<!-- _diagram_info -->
<g id="node1" class="node">
<title>_diagram_info</title>
<text text-anchor="start" x="8" y="-72.6" font-family="Times,serif" font-size="13.00">Models diagram</text>
<text text-anchor="start" x="8" y="-59.6" font-family="Times,serif" font-size="13.00">Date: Oct 17 2019 &#45; 15:02</text>
<text text-anchor="start" x="8" y="-46.6" font-family="Times,serif" font-size="13.00">Migration version: 20191017110041</text>
<text text-anchor="start" x="8" y="-33.6" font-family="Times,serif" font-size="13.00">Generated by RailRoady 1.5.3</text>
<text text-anchor="start" x="8" y="-20.6" font-family="Times,serif" font-size="13.00">http://railroady.prestonlee.com</text>
</g>
<!-- ApplicationRecord -->
<g id="node2" class="node">
<title>ApplicationRecord</title>
<ellipse fill="none" stroke="black" cx="302.45" cy="-50.5" rx="77.29" ry="18"/>
<text text-anchor="middle" x="302.45" y="-46.3" font-family="Times,serif" font-size="14.00">ApplicationRecord</text>
</g>
<!-- Task -->
<g id="node3" class="node">
<title>Task</title>
<path fill="none" stroke="black" d="M409.78,-0.5C409.78,-0.5 535.12,-0.5 535.12,-0.5 541.12,-0.5 547.12,-6.5 547.12,-12.5 547.12,-12.5 547.12,-88.5 547.12,-88.5 547.12,-94.5 541.12,-100.5 535.12,-100.5 535.12,-100.5 409.78,-100.5 409.78,-100.5 403.78,-100.5 397.78,-94.5 397.78,-88.5 397.78,-88.5 397.78,-12.5 397.78,-12.5 397.78,-6.5 403.78,-0.5 409.78,-0.5"/>
<text text-anchor="middle" x="472.45" y="-85.3" font-family="Times,serif" font-size="14.00">Task</text>
<polyline fill="none" stroke="black" points="397.78,-78.5 547.12,-78.5 "/>
<text text-anchor="start" x="405.78" y="-63.3" font-family="Times,serif" font-size="14.00">id :integer</text>
<text text-anchor="start" x="405.78" y="-49.3" font-family="Times,serif" font-size="14.00">title :varchar</text>
<text text-anchor="start" x="405.78" y="-35.3" font-family="Times,serif" font-size="14.00">description :varchar</text>
<text text-anchor="start" x="405.78" y="-21.3" font-family="Times,serif" font-size="14.00">created_at :datetime(6)</text>
<text text-anchor="start" x="405.78" y="-7.3" font-family="Times,serif" font-size="14.00">updated_at :datetime(6)</text>
</g>
</g>
</svg>
